%TF.GenerationSoftware,KiCad,Pcbnew,(6.0.0)*%
%TF.CreationDate,2022-01-10T18:15:17+02:00*%
%TF.ProjectId,dboard,64626f61-7264-42e6-9b69-6361645f7063,rev?*%
%TF.SameCoordinates,Original*%
%TF.FileFunction,Legend,Top*%
%TF.FilePolarity,Positive*%
%FSLAX46Y46*%
G04 Gerber Fmt 4.6, Leading zero omitted, Abs format (unit mm)*
G04 Created by KiCad (PCBNEW (6.0.0)) date 2022-01-10 18:15:17*
%MOMM*%
%LPD*%
G01*
G04 APERTURE LIST*
%ADD10C,0.150000*%
%ADD11C,0.120000*%
G04 APERTURE END LIST*
D10*
%TO.C,MH2*%
X16666666Y-2902380D02*
X16666666Y-1902380D01*
X17000000Y-2616666D01*
X17333333Y-1902380D01*
X17333333Y-2902380D01*
X17809523Y-2902380D02*
X17809523Y-1902380D01*
X17809523Y-2378571D02*
X18380952Y-2378571D01*
X18380952Y-2902380D02*
X18380952Y-1902380D01*
X18809523Y-1997619D02*
X18857142Y-1950000D01*
X18952380Y-1902380D01*
X19190476Y-1902380D01*
X19285714Y-1950000D01*
X19333333Y-1997619D01*
X19380952Y-2092857D01*
X19380952Y-2188095D01*
X19333333Y-2330952D01*
X18761904Y-2902380D01*
X19380952Y-2902380D01*
%TO.C,MH1*%
X-19333333Y-2902380D02*
X-19333333Y-1902380D01*
X-19000000Y-2616666D01*
X-18666666Y-1902380D01*
X-18666666Y-2902380D01*
X-18190476Y-2902380D02*
X-18190476Y-1902380D01*
X-18190476Y-2378571D02*
X-17619047Y-2378571D01*
X-17619047Y-2902380D02*
X-17619047Y-1902380D01*
X-16619047Y-2902380D02*
X-17190476Y-2902380D01*
X-16904761Y-2902380D02*
X-16904761Y-1902380D01*
X-17000000Y-2045238D01*
X-17095238Y-2140476D01*
X-17190476Y-2188095D01*
%TO.C,F1*%
X13429166Y-4078571D02*
X13095833Y-4078571D01*
X13095833Y-4602380D02*
X13095833Y-3602380D01*
X13572023Y-3602380D01*
X14476785Y-4602380D02*
X13905357Y-4602380D01*
X14191071Y-4602380D02*
X14191071Y-3602380D01*
X14095833Y-3745238D01*
X14000595Y-3840476D01*
X13905357Y-3888095D01*
%TO.C,D1*%
X-10618095Y-5472380D02*
X-10618095Y-4472380D01*
X-10380000Y-4472380D01*
X-10237142Y-4520000D01*
X-10141904Y-4615238D01*
X-10094285Y-4710476D01*
X-10046666Y-4900952D01*
X-10046666Y-5043809D01*
X-10094285Y-5234285D01*
X-10141904Y-5329523D01*
X-10237142Y-5424761D01*
X-10380000Y-5472380D01*
X-10618095Y-5472380D01*
X-9094285Y-5472380D02*
X-9665714Y-5472380D01*
X-9380000Y-5472380D02*
X-9380000Y-4472380D01*
X-9475238Y-4615238D01*
X-9570476Y-4710476D01*
X-9665714Y-4758095D01*
%TO.C,J2*%
X9166666Y-8452380D02*
X9166666Y-9166666D01*
X9119047Y-9309523D01*
X9023809Y-9404761D01*
X8880952Y-9452380D01*
X8785714Y-9452380D01*
X9595238Y-8547619D02*
X9642857Y-8500000D01*
X9738095Y-8452380D01*
X9976190Y-8452380D01*
X10071428Y-8500000D01*
X10119047Y-8547619D01*
X10166666Y-8642857D01*
X10166666Y-8738095D01*
X10119047Y-8880952D01*
X9547619Y-9452380D01*
X10166666Y-9452380D01*
%TO.C,J1*%
X-333333Y-8497380D02*
X-333333Y-9211666D01*
X-380952Y-9354523D01*
X-476190Y-9449761D01*
X-619047Y-9497380D01*
X-714285Y-9497380D01*
X666666Y-9497380D02*
X95238Y-9497380D01*
X380952Y-9497380D02*
X380952Y-8497380D01*
X285714Y-8640238D01*
X190476Y-8735476D01*
X95238Y-8783095D01*
%TO.C,R2*%
X-7047619Y-6166666D02*
X-7523809Y-6500000D01*
X-7047619Y-6738095D02*
X-8047619Y-6738095D01*
X-8047619Y-6357142D01*
X-8000000Y-6261904D01*
X-7952380Y-6214285D01*
X-7857142Y-6166666D01*
X-7714285Y-6166666D01*
X-7619047Y-6214285D01*
X-7571428Y-6261904D01*
X-7523809Y-6357142D01*
X-7523809Y-6738095D01*
X-7952380Y-5785714D02*
X-8000000Y-5738095D01*
X-8047619Y-5642857D01*
X-8047619Y-5404761D01*
X-8000000Y-5309523D01*
X-7952380Y-5261904D01*
X-7857142Y-5214285D01*
X-7761904Y-5214285D01*
X-7619047Y-5261904D01*
X-7047619Y-5833333D01*
X-7047619Y-5214285D01*
%TO.C,R1*%
X-8847619Y-6166666D02*
X-9323809Y-6500000D01*
X-8847619Y-6738095D02*
X-9847619Y-6738095D01*
X-9847619Y-6357142D01*
X-9800000Y-6261904D01*
X-9752380Y-6214285D01*
X-9657142Y-6166666D01*
X-9514285Y-6166666D01*
X-9419047Y-6214285D01*
X-9371428Y-6261904D01*
X-9323809Y-6357142D01*
X-9323809Y-6738095D01*
X-8847619Y-5214285D02*
X-8847619Y-5785714D01*
X-8847619Y-5500000D02*
X-9847619Y-5500000D01*
X-9704761Y-5595238D01*
X-9609523Y-5690476D01*
X-9561904Y-5785714D01*
%TO.C,R3*%
X-10747619Y-6166666D02*
X-11223809Y-6500000D01*
X-10747619Y-6738095D02*
X-11747619Y-6738095D01*
X-11747619Y-6357142D01*
X-11700000Y-6261904D01*
X-11652380Y-6214285D01*
X-11557142Y-6166666D01*
X-11414285Y-6166666D01*
X-11319047Y-6214285D01*
X-11271428Y-6261904D01*
X-11223809Y-6357142D01*
X-11223809Y-6738095D01*
X-11747619Y-5833333D02*
X-11747619Y-5214285D01*
X-11366666Y-5547619D01*
X-11366666Y-5404761D01*
X-11319047Y-5309523D01*
X-11271428Y-5261904D01*
X-11176190Y-5214285D01*
X-10938095Y-5214285D01*
X-10842857Y-5261904D01*
X-10795238Y-5309523D01*
X-10747619Y-5404761D01*
X-10747619Y-5690476D01*
X-10795238Y-5785714D01*
X-10842857Y-5833333D01*
%TO.C,C1*%
X-12942857Y-6166666D02*
X-12895238Y-6214285D01*
X-12847619Y-6357142D01*
X-12847619Y-6452380D01*
X-12895238Y-6595238D01*
X-12990476Y-6690476D01*
X-13085714Y-6738095D01*
X-13276190Y-6785714D01*
X-13419047Y-6785714D01*
X-13609523Y-6738095D01*
X-13704761Y-6690476D01*
X-13800000Y-6595238D01*
X-13847619Y-6452380D01*
X-13847619Y-6357142D01*
X-13800000Y-6214285D01*
X-13752380Y-6166666D01*
X-12847619Y-5214285D02*
X-12847619Y-5785714D01*
X-12847619Y-5500000D02*
X-13847619Y-5500000D01*
X-13704761Y-5595238D01*
X-13609523Y-5690476D01*
X-13561904Y-5785714D01*
D11*
%TO.C,F1*%
X14021078Y-3210000D02*
X13503922Y-3210000D01*
X14021078Y-1790000D02*
X13503922Y-1790000D01*
%TO.C,D1*%
X-11100000Y-8950000D02*
X-8700000Y-8950000D01*
X-8700000Y-5850000D02*
X-11650000Y-5850000D01*
%TO.C,J2*%
X6390000Y-6215000D02*
X6390000Y-3715000D01*
X6390000Y-3715000D02*
X7440000Y-3715000D01*
X7440000Y-3715000D02*
X7440000Y-2725000D01*
X12610000Y-6215000D02*
X12610000Y-3715000D01*
X12610000Y-3715000D02*
X11560000Y-3715000D01*
X7560000Y-8185000D02*
X11440000Y-8185000D01*
%TO.C,J1*%
X4700000Y500000D02*
X-4700000Y500000D01*
X-4700000Y-5300000D02*
X-4700000Y-3300000D01*
X-4700000Y-1400000D02*
X-4700000Y500000D01*
X4700000Y-5300000D02*
X4700000Y-3300000D01*
X4700000Y-1400000D02*
X4700000Y500000D01*
%TO.C,R2*%
X-6977500Y-3837258D02*
X-6977500Y-3362742D01*
X-8022500Y-3837258D02*
X-8022500Y-3362742D01*
%TO.C,R1*%
X-9822500Y-3362742D02*
X-9822500Y-3837258D01*
X-8777500Y-3362742D02*
X-8777500Y-3837258D01*
%TO.C,R3*%
X-10465000Y-3739564D02*
X-10465000Y-3285436D01*
X-11935000Y-3739564D02*
X-11935000Y-3285436D01*
%TO.C,C1*%
X-13810000Y-3540580D02*
X-13810000Y-3259420D01*
X-12790000Y-3540580D02*
X-12790000Y-3259420D01*
%TD*%
M02*
