%TF.GenerationSoftware,KiCad,Pcbnew,(6.0.0)*%
%TF.CreationDate,2022-01-25T22:22:53+02:00*%
%TF.ProjectId,dboard,64626f61-7264-42e6-9b69-6361645f7063,rev?*%
%TF.SameCoordinates,Original*%
%TF.FileFunction,Soldermask,Top*%
%TF.FilePolarity,Negative*%
%FSLAX46Y46*%
G04 Gerber Fmt 4.6, Leading zero omitted, Abs format (unit mm)*
G04 Created by KiCad (PCBNEW (6.0.0)) date 2022-01-25 22:22:53*
%MOMM*%
%LPD*%
G01*
G04 APERTURE LIST*
G04 Aperture macros list*
%AMRoundRect*
0 Rectangle with rounded corners*
0 $1 Rounding radius*
0 $2 $3 $4 $5 $6 $7 $8 $9 X,Y pos of 4 corners*
0 Add a 4 corners polygon primitive as box body*
4,1,4,$2,$3,$4,$5,$6,$7,$8,$9,$2,$3,0*
0 Add four circle primitives for the rounded corners*
1,1,$1+$1,$2,$3*
1,1,$1+$1,$4,$5*
1,1,$1+$1,$6,$7*
1,1,$1+$1,$8,$9*
0 Add four rect primitives between the rounded corners*
20,1,$1+$1,$2,$3,$4,$5,0*
20,1,$1+$1,$4,$5,$6,$7,0*
20,1,$1+$1,$6,$7,$8,$9,0*
20,1,$1+$1,$8,$9,$2,$3,0*%
G04 Aperture macros list end*
%ADD10C,0.700000*%
%ADD11C,4.400000*%
%ADD12RoundRect,0.225000X0.250000X-0.225000X0.250000X0.225000X-0.250000X0.225000X-0.250000X-0.225000X0*%
%ADD13RoundRect,0.200000X0.275000X-0.200000X0.275000X0.200000X-0.275000X0.200000X-0.275000X-0.200000X0*%
%ADD14C,0.650000*%
%ADD15R,0.600000X1.450000*%
%ADD16R,0.300000X1.450000*%
%ADD17O,1.000000X1.600000*%
%ADD18O,1.000000X2.100000*%
%ADD19RoundRect,0.200000X-0.275000X0.200000X-0.275000X-0.200000X0.275000X-0.200000X0.275000X0.200000X0*%
%ADD20RoundRect,0.249999X0.450001X-0.262501X0.450001X0.262501X-0.450001X0.262501X-0.450001X-0.262501X0*%
%ADD21RoundRect,0.150000X-0.150000X-0.625000X0.150000X-0.625000X0.150000X0.625000X-0.150000X0.625000X0*%
%ADD22RoundRect,0.250000X-0.350000X-0.650000X0.350000X-0.650000X0.350000X0.650000X-0.350000X0.650000X0*%
%ADD23RoundRect,0.243750X0.243750X0.456250X-0.243750X0.456250X-0.243750X-0.456250X0.243750X-0.456250X0*%
%ADD24R,1.400000X1.200000*%
%ADD25R,1.400000X1.000000*%
G04 APERTURE END LIST*
D10*
%TO.C,MH2*%
X19166726Y-6816726D03*
X18000000Y-4000000D03*
X16350000Y-5650000D03*
X19650000Y-5650000D03*
D11*
X18000000Y-5650000D03*
D10*
X18000000Y-7300000D03*
X19166726Y-4483274D03*
X16833274Y-4483274D03*
X16833274Y-6816726D03*
%TD*%
D12*
%TO.C,C1*%
X-13300000Y-4175000D03*
X-13300000Y-2625000D03*
%TD*%
D11*
%TO.C,MH1*%
X-18000000Y-5650000D03*
D10*
X-19650000Y-5650000D03*
X-16833274Y-6816726D03*
X-18000000Y-7300000D03*
X-19166726Y-4483274D03*
X-16350000Y-5650000D03*
X-19166726Y-6816726D03*
X-18000000Y-4000000D03*
X-16833274Y-4483274D03*
%TD*%
D13*
%TO.C,R2*%
X-7500000Y-4425000D03*
X-7500000Y-2775000D03*
%TD*%
D14*
%TO.C,J1*%
X-2890000Y-6000000D03*
X2890000Y-6000000D03*
D15*
X3250000Y-7445000D03*
X2450000Y-7445000D03*
D16*
X1250000Y-7445000D03*
X250000Y-7445000D03*
X-250000Y-7445000D03*
X-1250000Y-7445000D03*
D15*
X-2450000Y-7445000D03*
X-3250000Y-7445000D03*
X-3250000Y-7445000D03*
X-2450000Y-7445000D03*
D16*
X-1750000Y-7445000D03*
X-750000Y-7445000D03*
X750000Y-7445000D03*
X1750000Y-7445000D03*
D15*
X2450000Y-7445000D03*
X3250000Y-7445000D03*
D17*
X-4320000Y-2350000D03*
D18*
X4320000Y-6530000D03*
X-4320000Y-6530000D03*
D17*
X4320000Y-2350000D03*
%TD*%
D19*
%TO.C,R1*%
X-9300000Y-2775000D03*
X-9300000Y-4425000D03*
%TD*%
D20*
%TO.C,R3*%
X-11200000Y-4425000D03*
X-11200000Y-2600000D03*
%TD*%
D21*
%TO.C,J2*%
X8000000Y-3500000D03*
X9000000Y-3500000D03*
X10000000Y-3500000D03*
X11000000Y-3500000D03*
D22*
X6700000Y-7375000D03*
X12300000Y-7375000D03*
%TD*%
D23*
%TO.C,F1*%
X14700000Y-2500000D03*
X12825000Y-2500000D03*
%TD*%
D24*
%TO.C,D1*%
X-11000000Y-6630000D03*
D25*
X-11000000Y-8350000D03*
X-8800000Y-8350000D03*
X-8800000Y-6450000D03*
%TD*%
M02*
