M48
; DRILL file {KiCad (6.0.0)} date Tue Jan 25 22:22:53 2022
; FORMAT={-:-/ absolute / inch / decimal}
; #@! TF.CreationDate,2022-01-25T22:22:53+02:00
; #@! TF.GenerationSoftware,Kicad,Pcbnew,(6.0.0)
; #@! TF.FileFunction,Plated,1,2,PTH
FMAT,2
INCH
; #@! TA.AperFunction,Plated,PTH,ViaDrill
T1C0.0157
; #@! TA.AperFunction,Plated,PTH,ComponentDrill
T2C0.0157
; #@! TA.AperFunction,Plated,PTH,ComponentDrill
T3C0.0236
; #@! TA.AperFunction,Plated,PTH,ComponentDrill
T4C0.0866
%
G90
G05
T1
X-0.3661Y-0.0709
X-0.2736Y-0.2697
X-0.2205Y-0.2795
X-0.0945Y-0.0945
X-0.0476Y-0.1799
X0.0748Y-0.2323
X0.0787Y-0.3543
X0.2047Y-0.3228
X0.261Y-0.1402
X0.4303Y-0.1992
X0.4614Y-0.0819
X0.5787Y-0.1614
T2
X-0.7736Y-0.2224
X-0.7546Y-0.1765
X-0.7546Y-0.2684
X-0.7087Y-0.1575
X-0.7087Y-0.2874
X-0.6627Y-0.1765
X-0.6627Y-0.2684
X-0.6437Y-0.2224
X0.6437Y-0.2224
X0.6627Y-0.1765
X0.6627Y-0.2684
X0.7087Y-0.1575
X0.7087Y-0.2874
X0.7546Y-0.1765
X0.7546Y-0.2684
X0.7736Y-0.2224
T4
X-0.7087Y-0.2224
X0.7087Y-0.2224
T3
G00X-0.1701Y-0.1043
M15
G01X-0.1701Y-0.0807
M16
G05
G00X-0.1701Y-0.2787
M15
G01X-0.1701Y-0.2354
M16
G05
G00X0.1701Y-0.1043
M15
G01X0.1701Y-0.0807
M16
G05
G00X0.1701Y-0.2787
M15
G01X0.1701Y-0.2354
M16
G05
T0
M30
